<svg xmlns="http://www.w3.org/2000/svg" viewBox="0 0 64 64" width="64" height="64" role="img" aria-label="Java">
  <rect width="64" height="64" rx="14" fill="white"/>
  <!-- steam (red) -->
  <path d="M34 10c3 4-2 6-2 9s5 5 5 8-6 5-6 8 5 6 5 9" fill="none" stroke="#E76F00" stroke-width="2.5" stroke-linecap="round"/>
  <!-- cup (blue) -->
  <path d="M18 38c0 6 6 10 14 10s14-4 14-10H18z" fill="#5382A1"/>
  <path d="M46 34h4a4 4 0 0 1 0 8h-4v-2h4a2 2 0 0 0 0-4h-4v-2z" fill="#5382A1"/>
  <!-- saucer -->
  <ellipse cx="32" cy="51" rx="16" ry="3" fill="#9BBBD1" opacity="0.6"/>
</svg>
